<?xml version="1.0" encoding="utf-8"?>
<!-- Generator: Adobe Illustrator 26.0.0, SVG Export Plug-In . SVG Version: 6.00 Build 0)  -->
<svg version="1.1" xmlns="http://www.w3.org/2000/svg" xmlns:xlink="http://www.w3.org/1999/xlink" x="0px" y="0px"
	 viewBox="0 0 135 135" style="enable-background:new 0 0 135 135;" xml:space="preserve">
<style type="text/css">
	.st0{fill:#F3E600;stroke:#F3E600;stroke-width:9;stroke-miterlimit:10;}
</style>
<g id="Livello_1">
</g>
<g id="Livello_2">
	<g>
		<path class="st0" d="M120.43,116.53L92.99,88.44c5.74-7.49,9.13-16.85,9.13-26.98c0-24.58-20.01-44.59-44.59-44.59
			c-24.58,0-44.59,20.01-44.59,44.59s20.01,44.59,44.59,44.59c10.41,0,19.99-3.59,27.59-9.6l27.37,28.02
			c1.1,1.1,2.53,1.64,3.97,1.64c1.44,0,2.87-0.54,3.97-1.64C122.61,122.27,122.61,118.73,120.43,116.53z M57.53,94.83
			c-18.42,0-33.38-14.96-33.38-33.38c0-18.39,14.96-33.38,33.38-33.38c18.39,0,33.38,14.98,33.38,33.38
			C90.91,79.87,75.92,94.83,57.53,94.83z"/>
	</g>
</g>
</svg>
